<svg width="491" height="328" viewBox="0 0 491 328" fill="none" xmlns="http://www.w3.org/2000/svg">
<path d="M13.0737 96.8026L13.3432 69.577C13.3432 48.2818 12.3099 36.2414 10.2433 33.4559C9.25491 32.198 8.76071 31.3444 8.76071 30.8951C8.76071 30.356 9.34476 29.7719 10.5129 29.143C11.7708 28.4241 14.1519 27.6604 17.6562 26.8517C21.1605 26.043 24.2604 25.6387 26.956 25.6387C29.6516 25.6387 30.9994 26.2676 30.9994 27.5256L30.7299 29.2777C29.6516 38.9819 29.1125 48.4615 29.1125 57.7164C29.1125 66.9713 29.3821 77.3044 29.9212 88.7158C30.4603 100.127 30.7299 108.529 30.7299 113.92C30.7299 121.198 27.8995 127.443 22.2387 132.654C16.6678 137.956 10.0187 140.831 2.29126 141.28C0.763755 141.1 0 140.561 0 139.663C0 139.034 0.224634 138.54 0.673901 138.18C1.03332 137.821 1.48258 137.371 2.0217 136.832C2.56082 136.293 3.54921 134.901 4.98687 132.654C6.42452 130.408 7.68247 127.847 8.76071 124.972C9.83896 122.186 10.8273 118.278 11.7259 113.246C12.6244 108.214 13.0737 102.733 13.0737 96.8026Z" fill="#FAC05C"/>
<path d="M53.1129 87.5028L53.2477 90.8723C53.2477 91.4114 53.6071 91.681 54.3259 91.681C57.2012 91.4114 59.7171 90.6926 61.8736 89.5245C64.0301 88.2665 65.6474 86.8738 66.7257 85.3463C68.8822 82.0217 70.0503 79.1464 70.23 76.7204L70.3648 75.103C70.3648 70.2509 68.4329 67.8249 64.5692 67.8249C61.6939 67.8249 59.3577 69.0828 57.5606 71.5987C54.5955 75.5523 53.1129 80.8536 53.1129 87.5028ZM82.495 105.429C82.495 108.843 81.7761 111.853 80.3385 114.459C78.9907 116.975 77.4183 118.862 75.6212 120.12C73.914 121.288 71.8923 122.231 69.5561 122.95C66.5909 123.849 63.7605 124.298 61.0649 124.298C53.5172 124.298 47.9463 121.467 44.3522 115.807C40.758 110.146 38.961 102.958 38.961 94.2418C38.961 85.4362 41.1624 77.6189 45.5652 70.79C50.0579 63.9612 56.7519 60.5468 65.6474 60.5468C73.7343 60.5468 79.2153 63.3771 82.0906 69.0379C83.2587 71.1944 83.8428 73.261 83.8428 75.2378C83.8428 77.1247 83.7529 78.6522 83.5732 79.8203C83.3935 80.8986 82.7645 82.5609 81.6863 84.8072C80.608 87.0535 79.1704 89.0752 77.3733 90.8723C75.5763 92.6694 72.7459 94.3766 68.8822 95.9939C65.0185 97.6113 60.4809 98.6896 55.2694 99.2287C54.5505 99.2287 54.1911 99.5432 54.1911 100.172C54.1911 100.981 54.4607 102.194 54.9998 103.811C55.6288 105.339 56.3027 106.642 57.0215 107.72C58.9983 110.236 61.9185 111.494 65.7822 111.494C69.6459 111.494 72.9256 110.236 75.6212 107.72C77.0588 106.372 78.2269 104.71 79.1255 102.733C79.4849 102.014 79.9341 101.655 80.4733 101.655C81.1022 101.655 81.5964 102.149 81.9558 103.137C82.3153 104.126 82.495 104.889 82.495 105.429Z" fill="#FAC05C"/>
<path d="M104.684 49.36L104.549 62.4337C104.549 62.9728 104.729 63.2424 105.089 63.2424C105.448 63.2424 105.807 63.1076 106.167 62.838C108.413 61.3105 111.962 60.5468 116.814 60.5468C124.991 60.5468 130.652 63.3322 133.797 68.9031C134.965 70.9698 135.549 73.7103 135.549 77.1247C135.549 80.5392 135.324 85.2565 134.875 91.2766C134.516 97.2968 134.336 101.565 134.336 104.081C134.336 112.886 135.594 118.727 138.11 121.602C138.559 122.051 138.784 122.501 138.784 122.95C138.784 123.849 136.852 124.298 132.988 124.298C122.565 124.298 117.354 119.446 117.354 109.742C117.354 105.968 118.252 100.666 120.049 93.8375C121.846 87.0086 122.745 81.9768 122.745 78.7421C122.745 75.5074 121.981 73.0364 120.453 71.3292C118.926 69.5321 116.814 68.6336 114.119 68.6336C111.423 68.6336 109.267 69.2176 107.649 70.3857C106.122 71.5538 105.178 72.7668 104.819 74.0248L104.415 75.7769C104.325 77.4841 104.28 82.9203 104.28 92.0853C104.28 101.25 104.505 107.226 104.954 110.011C105.403 112.707 105.628 114.234 105.628 114.594C105.628 117.199 103.876 119.536 100.371 121.602C96.867 123.579 93.4076 124.567 89.9932 124.567C88.7352 124.567 88.1062 123.849 88.1062 122.411L88.3758 119.85C90.3526 104.755 91.341 88.4013 91.341 70.79C91.341 63.9612 91.0714 57.0425 90.5323 50.0339L90.3975 47.0687C90.2178 44.5528 89.6787 42.3963 88.7802 40.5993C87.9715 38.8022 87.2077 37.6341 86.4889 37.095L85.2759 36.4211C84.6469 36.0617 84.3324 35.6573 84.3324 35.2081C84.3324 33.9501 86.444 32.4226 90.6671 30.6255C94.8902 28.7386 98.1249 27.7952 100.371 27.7952C102.707 27.7952 103.965 28.2894 104.145 29.2777C104.505 33.8603 104.684 40.5544 104.684 49.36Z" fill="#FAC05C"/>
<path d="M142.842 122.68C144.459 112.976 145.268 101.34 145.268 87.7724C145.268 74.2045 144.863 65.3988 144.055 61.3554C144.055 60.1873 145.403 59.6033 148.098 59.6033C152.231 59.6033 154.972 61.1757 156.32 64.3206C156.41 64.5902 156.634 64.7249 156.994 64.7249C157.353 64.7249 157.623 64.6351 157.802 64.4554C160.588 61.5801 164.901 60.1424 170.741 60.1424C176.582 60.1424 181.209 61.625 184.624 64.5902C188.038 67.5553 189.745 71.8683 189.745 77.5291C189.745 80.9435 189.431 85.7956 188.802 92.0853C188.263 98.3751 187.993 103.047 187.993 106.102C187.993 113.381 189.206 118.637 191.632 121.872C191.992 122.321 192.171 122.77 192.171 123.22C192.171 124.388 190.913 124.972 188.397 124.972C177.256 124.972 171.685 120.03 171.685 110.146C171.685 106.372 172.538 101.116 174.246 94.3766C175.953 87.6376 176.806 82.5159 176.806 79.0116C176.806 71.8234 173.841 68.2292 167.911 68.2292C165.036 68.2292 162.834 69.0828 161.307 70.79C159.869 72.4973 159.06 74.474 158.881 76.7204C158.701 78.8769 158.611 83.0101 158.611 89.1202C158.611 98.4649 158.926 106.597 159.555 113.515L159.824 116.481C159.824 118.996 158.162 120.928 154.837 122.276C151.602 123.714 148.772 124.433 146.346 124.433C144.01 124.433 142.842 123.849 142.842 122.68Z" fill="#FAC05C"/>
<path d="M220.531 159.071C220.531 160.149 219.992 160.688 218.914 160.688H218.779C215.814 160.688 212.444 159.655 208.67 157.589C204.986 155.522 203.144 153.141 203.144 150.445C203.144 147.75 204.852 143.032 208.266 136.293C211.68 129.644 213.388 125.196 213.388 122.95C213.388 120.524 212.22 116.166 209.883 109.876C206.918 101.7 204.537 95.0505 202.74 89.9288C201.033 84.8072 199.146 80.3145 197.079 76.4508C195.102 72.4973 193.665 70.1611 192.766 69.4422L191.418 68.4988C190.43 67.9597 189.936 67.3756 189.936 66.7466C189.936 65.4887 191.868 64.2307 195.731 62.9728C199.685 61.625 203.144 60.9511 206.109 60.9511C207.457 60.9511 208.58 62.0293 209.479 64.1858C211.096 68.4089 212.848 74.2494 214.735 81.7072C219.318 96.9823 222.193 104.62 223.361 104.62C224.17 104.62 225.787 101.475 228.213 95.1853C230.729 88.8955 231.987 83.8188 231.987 79.9551C231.987 73.2161 230.01 69.2625 226.057 68.0944C225.158 67.9147 224.709 67.4655 224.709 66.7466C224.709 65.1293 226.821 63.6018 231.044 62.1641C235.267 60.6366 239.086 59.8728 242.5 59.8728C245.465 59.8728 246.948 61.8047 246.948 65.6684C246.948 68.6336 246.319 72.0929 245.061 76.0465C243.803 80 242.635 83.1449 241.557 85.4811C240.478 87.7274 237.783 93.0288 233.47 101.385C229.247 109.652 225.742 116.93 222.957 123.22C219.902 130.767 218.374 138.45 218.374 146.267C218.374 150.4 218.734 153.5 219.453 155.567C220.172 157.633 220.531 158.802 220.531 159.071Z" fill="#FAC05C"/>
<path d="M13.7563 262.691L14.565 238.835H5.53468C4.81586 238.835 4.45644 238.565 4.45644 238.026C4.45644 236.409 5.2202 234.567 6.74771 232.5C8.27522 230.344 9.9375 229.265 11.7346 229.265H14.565C14.3853 222.257 14.2055 217.225 14.0258 214.17C13.6664 208.689 12.7679 204.466 11.3302 201.501L10.6563 200.153C10.2969 199.704 10.1172 199.165 10.1172 198.536C10.1172 197.907 10.6114 197.368 11.5998 196.918C12.5882 196.469 14.0258 195.93 15.9128 195.301C17.8895 194.672 22.0228 193.863 28.3125 192.875C34.6023 191.797 41.4311 191.257 48.7991 191.257C56.257 191.257 60.3004 191.797 60.9294 192.875C61.6482 193.953 62.0076 195.66 62.0076 197.996C62.0076 200.243 61.6931 201.366 61.0641 201.366C60.9743 201.366 60.6598 201.321 60.1207 201.231C58.683 200.872 56.4816 200.692 53.5164 200.692C50.5513 200.692 47.3615 200.962 43.947 201.501C40.5326 202.04 37.9269 202.579 36.1298 203.118L33.569 204.062C32.8501 204.241 32.311 204.87 31.9516 205.949C31.2328 211.25 30.8734 219.022 30.8734 229.265H52.7078C53.5164 229.265 53.9208 229.535 53.9208 230.074C53.9208 231.692 53.202 233.578 51.7643 235.735C50.3266 237.891 48.7093 238.97 46.9122 238.97L30.8734 238.835L31.8168 279.269C31.8168 281.246 31.5023 282.683 30.8734 283.582C29.1661 285.828 26.2459 287.491 22.1126 288.569C18.0692 289.737 14.6997 290.321 12.0041 290.321C11.2853 290.321 10.9259 289.872 10.9259 288.973C10.9259 288.524 10.9708 288.164 11.0607 287.895C12.1389 286.367 13.0375 277.966 13.7563 262.691Z" fill="#FAC05C"/>
<path d="M134.415 227.244C134.415 255.098 135.044 273.339 136.302 281.965C136.302 284.121 134.235 285.873 130.102 287.221C125.969 288.659 122.554 289.377 119.859 289.377C117.163 289.377 115.815 288.973 115.815 288.164C115.815 287.625 115.95 286.951 116.22 286.143C117.927 282.369 118.781 267.184 118.781 240.587C118.781 215.428 117.702 201.456 115.546 198.67L115.007 197.862C114.468 197.412 114.198 196.873 114.198 196.244C114.198 195.526 114.692 194.941 115.681 194.492C117.028 193.684 119.41 192.875 122.824 192.066C126.328 191.257 129.473 190.853 132.259 190.853C135.044 190.853 136.437 191.482 136.437 192.74V193.144C135.359 202.489 134.685 213.856 134.415 227.244Z" fill="#FAC05C"/>
<path d="M206.269 190.988L225.677 192.066C234.303 192.066 240.503 191.033 244.277 188.966C244.816 188.607 245.265 188.427 245.625 188.427C246.074 188.427 246.298 189.056 246.298 190.314C246.298 191.572 245.535 193.639 244.007 196.514C241.761 200.917 238.526 203.118 234.303 203.118L226.89 202.983C226.171 202.983 225.722 203.388 225.542 204.196C224.913 217.405 224.599 231.692 224.599 247.056C224.599 262.332 225.228 273.833 226.486 281.56V282.234C226.486 284.48 224.329 286.278 220.016 287.625C215.793 288.973 211.795 289.647 208.021 289.647C206.224 289.647 205.325 289.153 205.325 288.164C205.325 287.895 205.46 287.266 205.73 286.278C206.718 284.301 207.572 274.731 208.29 257.569C209.099 240.407 209.503 227.468 209.503 218.753L209.234 204.062C209.234 203.522 208.964 203.208 208.425 203.118C206.538 202.759 204.382 202.579 201.956 202.579C197.104 202.579 193.51 203.567 191.173 205.544C190.544 205.993 189.96 206.218 189.421 206.218C188.792 206.218 188.478 205.859 188.478 205.14C188.478 204.062 189.062 202.579 190.23 200.692C191.308 198.805 192.476 197.188 193.734 195.84C196.789 192.605 200.967 190.988 206.269 190.988Z" fill="#FAC05C"/>
<path d="M382.714 156.264C384.251 153.901 385.603 151.423 386.756 148.851L399.154 121.193L419.579 76.0674C421.528 71.7622 422.741 67.1609 423.169 62.4547L423.588 57.8435C423.959 53.7671 423.293 49.6631 421.652 45.913C420.787 43.9358 419.663 42.0828 418.308 40.4029L406.762 26.0865L397.618 13.7415C396.498 12.2292 395.893 10.3969 395.893 8.51487V8.37111C395.893 6.47027 396.54 4.62603 397.727 3.14172C399.316 1.15597 401.721 0 404.264 0H404.897C406.129 0 407.35 0.235163 408.495 0.692874L416.702 3.97599C419.13 4.94719 421.485 6.09236 423.748 7.40258L430.675 11.4128L433.104 13.1482C436.526 15.5925 439.457 18.6604 441.741 22.191L442.363 23.1521C443.623 25.099 444.608 27.2106 445.29 29.427C446.049 31.8954 447.184 34.2322 448.654 36.3556L448.805 36.5747C450.475 38.9865 452.528 41.1089 454.883 42.8581L461.44 47.7292C467.318 52.0959 472.253 57.6055 475.949 63.9272L483.571 76.9641C488.436 85.2863 491 94.7528 491 104.393V119.107C491 126.226 489.601 133.275 486.884 139.854L470.348 179.888L454.467 209.382C452.381 213.255 449.833 216.861 446.878 220.12L418.089 251.873C415.617 254.6 412.874 257.068 409.902 259.241L356.488 298.292C351.988 301.581 347.009 304.159 341.726 305.935L294.696 321.74C287.25 324.242 279.351 325.1 271.542 324.256L271.109 324.209C265.921 323.649 260.68 323.838 255.546 324.771L239.374 327.712L227.961 306.516L239.601 296.539C244.473 292.363 248.461 287.256 251.33 281.517L258.395 270.104L259.664 268.412C264.203 262.36 269.955 257.323 276.553 253.622L285.209 248.766C287.619 247.414 289.923 245.88 292.1 244.177L331.22 213.583L356.629 192.117C360.682 188.693 364.212 184.694 367.106 180.246L382.714 156.264Z" fill="#FAC05C"/>
<path d="M386.222 166.845L398.179 145.106L412.31 110.324L419.973 92.7427C421.022 90.3365 421.895 87.8574 422.586 85.325L424.809 77.1724" stroke="#080808" stroke-width="2" stroke-linecap="round"/>
<path d="M470.348 61.4121C477.957 69.0207 479.044 79.3466 479.044 79.3466C483.625 82.4458 486.489 91.5718 487.86 97.1367C488.592 100.11 488.826 103.168 488.826 106.23V118.098C488.826 125.166 487.448 132.167 484.767 138.707L475.24 161.954L460.566 194.018L445.492 218.686C443.59 221.798 441.379 224.711 438.894 227.38L417.194 250.688C414.594 253.479 411.709 255.99 408.584 258.177L386.111 273.908L362.198 292.386L345.737 301.916C342.949 303.531 340.022 304.894 336.992 305.99L316.003 313.582L296.016 318.345" stroke="black" stroke-width="1.5" stroke-linecap="round"/>
<path d="M401.293 5.21545C401.654 4.6733 402.263 4.34766 402.914 4.34766C403.613 4.34766 404.259 4.72238 404.606 5.32957L405.177 6.32903C405.73 7.29698 407.007 7.56112 407.899 6.89222C408.219 6.6516 408.61 6.52153 409.011 6.52153H410.171C410.762 6.52153 411.319 6.80002 411.674 7.27322L411.85 7.50788C412.35 8.17413 413.283 8.33396 413.976 7.87201C414.233 7.70017 414.536 7.60847 414.846 7.60847H415.458C416.167 7.60847 416.86 7.81825 417.449 8.21139L417.647 8.34338C417.997 8.57684 418.312 8.85961 418.582 9.18294L418.986 9.6683C420.222 11.1516 421.915 12.1834 423.8 12.6023L424.053 12.6585C425.197 12.9127 426.284 13.3766 427.259 14.0267L428.412 14.7955C428.831 15.0744 429.294 15.2794 429.782 15.4013C430.714 15.6343 431.544 16.1667 432.144 16.9169L434.618 20.0094C435.249 20.7982 435.804 21.6445 436.277 22.5372L439.838 29.2649C440.251 30.0432 440.723 30.788 441.251 31.4926L443.379 34.3291C443.602 34.6266 443.75 34.9734 443.811 35.3402L443.875 35.7209C444.077 36.9363 443.14 38.0427 441.908 38.0427C440.807 38.0427 439.914 38.9354 439.914 40.0367V44.5643C439.914 45.1646 440.401 45.6513 441.001 45.6513C441.601 45.6513 442.088 46.1379 442.088 46.7382C442.088 47.3385 441.601 47.8251 441.001 47.8251H440.457C439.557 47.8251 438.827 48.5551 438.827 49.4556V51.6294C438.827 51.9296 439.07 52.1729 439.371 52.1729C439.671 52.1729 439.914 52.4162 439.914 52.7164V55.7521C439.914 56.2442 440.109 56.7161 440.457 57.0641C440.805 57.4121 441.277 57.6076 441.77 57.6076H444.805C445.105 57.6076 445.349 57.8509 445.349 58.151C445.349 58.4512 445.105 58.6945 444.805 58.6945H441.98C441.439 58.6945 441.001 59.133 441.001 59.6739C441.001 59.7454 440.993 59.8166 440.978 59.8864L440.451 62.2552C440.094 63.8622 439.566 65.4265 438.876 66.9212L437.145 70.6714C436.821 71.3739 436.653 72.1385 436.653 72.9122V77.7159C436.653 78.0161 436.41 78.2594 436.11 78.2594C435.81 78.2594 435.566 78.0161 435.566 77.7159V69.3115C435.566 68.2503 434.706 67.39 433.645 67.39C433.135 67.39 432.646 67.5924 432.286 67.9528L431.786 68.4527C431.415 68.8242 430.949 69.0877 430.44 69.2152C429.561 69.4349 428.835 70.0528 428.478 70.8855L426.038 76.5796C425.884 76.9392 425.53 77.1724 425.139 77.1724C424.425 77.1724 423.951 76.4325 424.251 75.7843L426.871 70.1074L430.611 62.6271C431.01 61.8279 431.219 60.9467 431.219 60.0532C431.219 59.1597 431.01 58.2785 430.611 57.4793L430.132 56.5206L423.61 44.0209L415.93 31.8226C414.893 30.1757 413.709 28.6255 412.394 27.1909L409.152 23.6542C408.65 23.1063 408.251 22.472 407.975 21.7819C407.538 20.6891 406.797 19.7446 405.839 19.0605L404.966 18.4366C403.998 17.7452 403.163 16.8837 402.504 15.894L402.377 15.7039C401.683 14.6625 401.173 13.5094 400.869 12.295L400.127 9.32897C399.854 8.23318 400.055 7.07267 400.681 6.13286L401.293 5.21545Z" fill="#080808"/>
<path d="M432.664 86.6084C432.773 86.1732 433.164 85.8679 433.612 85.8679C434.295 85.8679 434.767 86.5497 434.527 87.1888L433.392 90.2157L431.762 96.1938L430.853 98.9211C430.734 99.2764 430.591 99.6227 430.424 99.9577C429.874 101.056 429.588 102.268 429.588 103.497V104.536C429.588 106.203 429.249 107.854 428.592 109.386L427.958 110.868C426.891 112.646 426.327 114.68 426.327 116.754V119.247C426.327 120.158 426.032 121.044 425.486 121.772L425.401 121.884C424.943 122.496 424.308 122.953 423.583 123.195L423.211 123.319C422.119 123.683 421.318 124.621 421.128 125.756C420.979 126.654 420.443 127.441 419.662 127.91L419.534 127.987C418.672 128.504 418.08 129.373 417.915 130.365L417.392 133.503C417.191 134.707 416.778 135.866 416.172 136.926L414.914 139.128L411.469 146.51C411.242 146.997 410.808 147.356 410.286 147.486C409.493 147.684 408.936 148.397 408.936 149.215V149.997C408.936 150.598 408.45 151.084 407.849 151.084C407.249 151.084 406.762 150.598 406.762 149.997V149.454C406.762 148.553 406.032 147.823 405.132 147.823C404.232 147.823 403.502 147.093 403.502 146.193V143.747C403.502 142.865 403.216 142.007 402.686 141.302L402.169 140.612C401.973 140.351 401.719 140.139 401.427 139.993L401.019 139.789C400.272 139.415 399.936 138.532 400.246 137.756C400.552 136.992 401.386 136.583 402.178 136.809L403.867 137.291C404.343 137.427 404.785 137.661 405.165 137.978L406.962 139.475C407.535 139.953 408.258 140.215 409.005 140.215C410.768 140.215 412.197 138.786 412.197 137.023V135.108C412.197 134.182 411.946 133.274 411.469 132.48L408.936 128.258L408.109 126.604C407.95 126.286 407.624 126.085 407.268 126.085C406.38 126.085 405.987 124.966 406.681 124.411L406.71 124.387C407.059 124.109 407.553 124.109 407.901 124.387L409.921 126.003C409.989 126.057 410.051 126.119 410.105 126.187L411.443 127.859C411.693 128.172 412.197 127.995 412.197 127.595C412.197 127.361 412.387 127.172 412.62 127.172H414.885C416.166 127.172 417.269 126.267 417.52 125.011L418.049 122.369C418.133 121.949 418.262 121.539 418.434 121.146L421.388 114.393C421.779 113.5 422.333 112.688 423.023 111.998C424.114 110.907 424.858 109.516 425.161 108.003L426.073 103.445C426.239 102.615 426.647 101.853 427.245 101.254L427.282 101.217C428.063 100.437 428.501 99.3781 428.501 98.2745V97.7829C428.501 96.7826 428.972 95.8406 429.772 95.2404C430.356 94.8025 430.772 94.1769 430.949 93.4688L432.664 86.6084Z" fill="#080808"/>
<path d="M385.745 164.325C386.623 163.549 387.884 163.384 388.932 163.908C389.223 164.053 389.536 164.148 389.859 164.188L391.98 164.453C393.022 164.584 394.033 164.043 394.503 163.103L394.625 162.86C395.053 162.004 396.001 161.54 396.939 161.728C397.643 161.869 398.228 162.355 398.494 163.021L398.896 164.025C399.059 164.435 399.395 164.751 399.814 164.891C400.399 165.086 401.044 164.902 401.439 164.428L405.028 160.122C405.523 159.528 406.483 159.748 406.67 160.498C406.729 160.735 406.695 160.985 406.574 161.196L403.491 166.592C402.786 167.826 402.415 169.223 402.415 170.644V171.539C402.415 172.725 402.03 173.879 401.318 174.828C400.965 175.3 400.689 175.825 400.503 176.384L399.984 177.94C399.435 179.589 398.613 181.135 397.552 182.513L382.85 201.627L372.577 212.927C372.181 213.362 371.847 213.85 371.584 214.376L370.788 215.969C370.186 217.171 368.957 217.931 367.613 217.931C366.589 217.931 365.616 218.373 364.942 219.143L362.951 221.418C362.451 221.99 361.888 222.504 361.273 222.951L357.574 225.641C356.678 226.293 355.905 227.098 355.291 228.02C354.472 229.247 353.376 230.264 352.09 230.987L346.05 234.385C345.618 234.628 345.35 235.085 345.35 235.581C345.35 236.338 344.736 236.952 343.979 236.952H342.574C341.599 236.952 340.696 237.464 340.194 238.3L339.807 238.945C339.52 239.423 339.139 239.838 338.687 240.163L316.003 256.517L300.545 266.112C300.344 266.237 300.154 266.38 299.979 266.539L296.017 270.141C295.291 270.801 295.625 272.006 296.587 272.199C296.843 272.25 297.109 272.216 297.344 272.102L315.268 263.396C315.752 263.161 316.282 263.039 316.82 263.039H317.526C318.272 263.039 318.969 262.666 319.383 262.045C319.658 261.632 320.063 261.323 320.534 261.166L321.863 260.723C322.659 260.458 323.393 260.037 324.024 259.485L326.754 257.097C327.191 256.714 327.55 256.25 327.81 255.73C328.568 254.214 330.117 253.256 331.812 253.256H333.347C334.792 253.256 336.201 252.807 337.378 251.97L356.22 238.583L364.787 233.764C364.872 233.716 364.963 233.679 365.058 233.656C365.916 233.441 366.179 232.351 365.514 231.769L364.034 230.475C363.417 229.935 363.545 228.942 364.278 228.575C364.669 228.38 365.136 228.422 365.486 228.684L366.637 229.548C366.937 229.773 367.27 229.947 367.625 230.066L367.932 230.168C368.446 230.34 368.999 230.361 369.525 230.229L371.247 229.799C372.172 229.568 373.067 230.267 373.067 231.22C373.067 231.741 372.791 232.222 372.341 232.485L362.078 238.471C360.713 239.268 359.437 240.208 358.271 241.276L355.089 244.194C354.04 245.155 352.826 245.919 351.504 246.447L346.576 248.418C345.815 248.723 345.268 249.402 345.134 250.21C344.945 251.341 343.967 252.169 342.821 252.169H342.756C341.995 252.169 341.277 252.528 340.82 253.138L340.579 253.459C340.149 254.032 339.54 254.446 338.849 254.634L335.857 255.45C334.586 255.797 333.379 256.346 332.282 257.077L329.948 258.633C329.361 259.025 328.906 259.585 328.644 260.241C328.216 261.311 327.286 262.101 326.161 262.352L324.145 262.799C323.431 262.958 322.745 263.222 322.108 263.581L298.069 277.169L270.905 290.751C268.73 291.838 266.664 293.133 264.736 294.616L261.54 297.074C260.896 297.57 260.187 297.974 259.433 298.275L258.225 298.759C257.979 298.857 257.716 298.908 257.451 298.908H254.37C253.649 298.908 253.288 299.779 253.798 300.288C254.188 300.678 254.081 301.336 253.588 301.583L253.328 301.713C252.825 301.965 252.621 302.576 252.873 303.079L253.162 303.657C253.379 304.092 253.776 304.41 254.247 304.528L257.43 305.324C257.697 305.391 257.98 305.333 258.2 305.168C258.86 304.673 259.786 305.236 259.651 306.05L259.544 306.689C259.504 306.93 259.389 307.153 259.216 307.326L258.366 308.176C258.026 308.516 257.742 308.91 257.527 309.34L256.964 310.467C256.836 310.723 256.618 310.923 256.353 311.029C255.435 311.396 255.359 312.666 256.227 313.14L260.026 315.212L264.517 317.707C264.783 317.854 265.026 318.038 265.24 318.252L265.842 318.854C266.28 319.292 266.915 319.468 267.516 319.317L267.992 319.198C268.43 319.089 268.888 319.266 269.138 319.641L269.62 320.363C269.72 320.514 269.666 320.718 269.504 320.798L269.277 320.912C269.095 321.003 269.131 321.272 269.33 321.312C269.582 321.362 269.545 321.733 269.288 321.733H267.616C267.358 321.733 267.175 321.986 267.257 322.232L267.613 323.299C267.627 323.341 267.651 323.38 267.683 323.412C267.866 323.595 267.736 323.907 267.478 323.907H259.482L238.831 326.625L235.026 320.103L230.679 312.494L241.004 304.342L242.215 303.495C244.958 301.575 247.011 298.823 248.07 295.647L249.157 292.386L253.582 282.059C254.976 278.807 256.684 275.698 258.682 272.778L260.638 269.92C266.615 261.185 275.068 254.438 284.91 250.546C290.384 248.383 295.458 245.323 299.927 241.493L327.416 217.931L350.989 200.14C354.464 197.517 357.611 194.487 360.362 191.115L371.786 177.111C372.639 176.066 373.575 175.091 374.586 174.197L385.745 164.325Z" fill="#080808"/>
<path d="M435.566 136.954C435.566 135.695 436.245 134.534 437.343 133.917L437.74 133.693V133.817C437.74 135.214 436.874 136.464 435.566 136.954Z" fill="#080808"/>
<path d="M407.306 176.084C407.306 174.825 407.985 173.664 409.082 173.047L409.48 172.823V172.947C409.48 174.343 408.613 175.593 407.306 176.084Z" fill="#080808"/>
<path d="M407.306 176.084C407.306 174.825 407.985 173.664 409.082 173.047L409.48 172.823V172.947C409.48 174.343 408.613 175.593 407.306 176.084Z" fill="#080808"/>
<path d="M459.479 62.7136C460.517 62.0012 461.858 61.9041 462.988 62.4595L463.397 62.6607L463.295 62.7308C462.144 63.5211 460.623 63.5142 459.479 62.7136Z" fill="#080808"/>
<path d="M370.35 245.319C371.388 244.607 372.729 244.51 373.859 245.065L374.269 245.266L374.166 245.336C373.015 246.127 371.494 246.12 370.35 245.319Z" fill="#080808"/>
<path d="M322.525 273.579C323.563 272.867 324.904 272.77 326.034 273.325L326.443 273.527L326.341 273.597C325.19 274.387 323.669 274.38 322.525 273.579Z" fill="#080808"/>
<path d="M295.351 293.144C296.389 292.432 297.731 292.335 298.861 292.89L299.27 293.091L299.168 293.161C298.016 293.952 296.496 293.945 295.351 293.144Z" fill="#080808"/>
<path d="M271.439 306.188C272.477 305.475 273.818 305.378 274.948 305.933L275.357 306.135L275.255 306.205C274.104 306.995 272.583 306.988 271.439 306.188Z" fill="#080808"/>
<path d="M423.088 211.718C423.558 210.55 424.62 209.725 425.869 209.561L426.321 209.502L426.275 209.617C425.754 210.913 424.485 211.75 423.088 211.718Z" fill="#080808"/>
<path d="M462.225 155.068C462.004 154.452 462.132 153.766 462.56 153.272L462.715 153.093L462.737 153.153C462.982 153.836 462.778 154.599 462.225 155.068Z" fill="#080808"/>
<path d="M480.352 122.767C480.373 122.114 480.745 121.523 481.324 121.221L481.535 121.112L481.532 121.176C481.509 121.901 481.039 122.535 480.352 122.767Z" fill="#080808"/>
<path d="M448.796 73.4289C448.724 72.1721 449.336 70.974 450.396 70.295L450.78 70.0489L450.787 70.1726C450.867 71.5668 450.074 72.8645 448.796 73.4289Z" fill="#080808"/>
<path d="M359.668 256.034C359.595 254.778 360.207 253.579 361.267 252.9L361.651 252.654L361.658 252.778C361.738 254.172 360.945 255.47 359.668 256.034Z" fill="#080808"/>
<path d="M311.842 284.295C311.77 283.038 312.382 281.84 313.442 281.161L313.826 280.915L313.833 281.038C313.913 282.433 313.12 283.73 311.842 284.295Z" fill="#080808"/>
<path d="M284.669 303.86C284.597 302.603 285.208 301.405 286.268 300.726L286.652 300.48L286.659 300.603C286.739 301.997 285.946 303.295 284.669 303.86Z" fill="#080808"/>
<path d="M260.756 316.903C260.684 315.646 261.295 314.448 262.356 313.769L262.74 313.523L262.747 313.647C262.827 315.041 262.034 316.338 260.756 316.903Z" fill="#080808"/>
<path d="M420.135 226.557C419.378 225.551 419.223 224.215 419.729 223.062L419.913 222.645L419.987 222.744C420.827 223.86 420.885 225.379 420.135 226.557Z" fill="#080808"/>
<path d="M466.198 161.845C465.558 161.715 465.037 161.25 464.835 160.628L464.762 160.403L464.825 160.416C465.536 160.559 466.083 161.129 466.198 161.845Z" fill="#080808"/>
<path d="M481.55 130.531C481.002 130.175 480.689 129.551 480.731 128.899L480.746 128.662L480.8 128.697C481.408 129.093 481.707 129.823 481.55 130.531Z" fill="#080808"/>
<path d="M446.436 47.1679C447.55 46.5824 448.894 46.6435 449.95 47.3278L450.333 47.5757L450.224 47.6333C448.987 48.2829 447.478 48.0974 446.436 47.1679Z" fill="#080808"/>
<path d="M414.914 170.497C416.12 170.136 417.427 170.454 418.333 171.328L418.661 171.645L418.543 171.68C417.205 172.081 415.759 171.609 414.914 170.497Z" fill="#080808"/>
<path d="M414.914 170.497C416.12 170.136 417.427 170.454 418.333 171.328L418.661 171.645L418.543 171.68C417.205 172.081 415.759 171.609 414.914 170.497Z" fill="#080808"/>
<path d="M468.39 65.8251C469.37 66.6153 469.848 67.8727 469.64 69.1143L469.564 69.5642L469.468 69.4864C468.381 68.6098 467.951 67.1508 468.39 65.8251Z" fill="#080808"/>
<path d="M379.262 248.431C380.242 249.221 380.719 250.478 380.511 251.72L380.435 252.17L380.339 252.092C379.252 251.215 378.823 249.756 379.262 248.431Z" fill="#080808"/>
<path d="M331.436 276.691C332.416 277.481 332.894 278.739 332.686 279.98L332.61 280.43L332.514 280.352C331.427 279.476 330.997 278.017 331.436 276.691Z" fill="#080808"/>
<path d="M304.263 296.256C305.243 297.046 305.721 298.303 305.512 299.545L305.437 299.995L305.34 299.917C304.253 299.04 303.824 297.581 304.263 296.256Z" fill="#080808"/>
<path d="M280.35 309.299C281.33 310.089 281.808 311.347 281.6 312.588L281.524 313.038L281.428 312.96C280.341 312.084 279.911 310.625 280.35 309.299Z" fill="#080808"/>
<path d="M432.231 209.369C433.484 209.483 434.579 210.265 435.093 211.414L435.28 211.831L435.157 211.819C433.766 211.692 432.6 210.716 432.231 209.369Z" fill="#080808"/>
<path d="M464.962 151.002C465.488 150.614 466.183 150.54 466.779 150.808L466.995 150.906L466.943 150.944C466.359 151.374 465.57 151.397 464.962 151.002Z" fill="#080808"/>
<path d="M484.393 119.996C485.025 119.829 485.698 120.015 486.154 120.484L486.319 120.654L486.257 120.671C485.555 120.856 484.813 120.587 484.393 119.996Z" fill="#080808"/>
<path d="M456.072 67.4152C457.255 66.9858 458.578 67.2282 459.533 68.0491L459.879 68.3466L459.762 68.3889C458.449 68.8652 456.979 68.4772 456.072 67.4152Z" fill="#080808"/>
<path d="M366.943 250.021C368.127 249.591 369.45 249.834 370.404 250.655L370.75 250.952L370.633 250.994C369.321 251.471 367.85 251.083 366.943 250.021Z" fill="#080808"/>
<path d="M319.118 278.281C320.301 277.852 321.624 278.094 322.579 278.915L322.925 279.212L322.808 279.255C321.495 279.731 320.025 279.343 319.118 278.281Z" fill="#080808"/>
<path d="M291.945 297.846C293.128 297.417 294.451 297.659 295.405 298.48L295.751 298.777L295.635 298.82C294.322 299.296 292.851 298.908 291.945 297.846Z" fill="#080808"/>
<path d="M268.032 310.889C269.215 310.46 270.538 310.702 271.493 311.523L271.839 311.821L271.722 311.863C270.409 312.339 268.939 311.951 268.032 310.889Z" fill="#080808"/>
<path d="M422.858 217.519C423.605 216.506 424.841 215.975 426.09 216.129L426.543 216.185L426.47 216.285C425.641 217.409 424.202 217.901 422.858 217.519Z" fill="#080808"/>
<path d="M464.137 157.398C464.077 156.747 464.374 156.115 464.912 155.744L465.107 155.609L465.113 155.673C465.179 156.395 464.79 157.083 464.137 157.398Z" fill="#080808"/>
<path d="M481.271 125.638C481.455 125.011 481.964 124.532 482.6 124.385L482.831 124.332L482.813 124.394C482.609 125.089 481.994 125.585 481.271 125.638Z" fill="#080808"/>
<path d="M454.92 51.3048C455.8 52.2047 456.127 53.5095 455.774 54.718L455.647 55.1559L455.56 55.0673C454.583 54.0691 454.328 52.5697 454.92 51.3048Z" fill="#080808"/>
<path d="M410.567 176.084C410.567 174.878 411.368 173.82 412.529 173.494L414.914 172.823C414.914 174.241 413.904 175.458 412.511 175.719L410.567 176.084Z" fill="#080808"/>
<path d="M410.567 176.084C410.567 174.878 411.368 173.82 412.529 173.494L414.914 172.823C414.914 174.241 413.904 175.458 412.511 175.719L410.567 176.084Z" fill="#080808"/>
<path d="M461.324 65.4021C462.318 64.7201 463.644 64.7822 464.569 65.5541L466.473 67.1415C465.304 67.944 463.729 67.7999 462.724 66.7987L461.324 65.4021Z" fill="#080808"/>
<path d="M372.195 248.008C373.189 247.326 374.515 247.388 375.44 248.16L377.344 249.747C376.175 250.549 374.6 250.405 373.596 249.404L372.195 248.008Z" fill="#080808"/>
<path d="M324.37 276.268C325.364 275.586 326.69 275.648 327.615 276.42L329.519 278.007C328.349 278.81 326.775 278.666 325.77 277.664L324.37 276.268Z" fill="#080808"/>
<path d="M297.196 295.833C298.19 295.151 299.516 295.213 300.442 295.985L302.345 297.572C301.176 298.375 299.601 298.231 298.597 297.229L297.196 295.833Z" fill="#080808"/>
<path d="M273.284 308.876C274.277 308.194 275.604 308.256 276.529 309.028L278.433 310.615C277.263 311.418 275.689 311.274 274.684 310.273L273.284 308.876Z" fill="#080808"/>
<path d="M426.114 212.933C426.563 211.815 427.701 211.131 428.9 211.261L431.364 211.527C430.835 212.843 429.445 213.596 428.054 213.319L426.114 212.933Z" fill="#080808"/>
<path d="M463.818 154.495C463.607 153.906 463.813 153.249 464.322 152.886L465.371 152.139C465.619 152.832 465.339 153.604 464.704 153.976L463.818 154.495Z" fill="#080808"/>
<path d="M482.044 122.822C482.064 122.197 482.498 121.661 483.105 121.511L484.355 121.203C484.331 121.939 483.786 122.553 483.059 122.666L482.044 122.822Z" fill="#080808"/>
<path d="M452.052 73.2422C451.983 72.0389 452.722 70.9365 453.862 70.5442L456.205 69.7375C456.287 71.1532 455.348 72.426 453.972 72.7668L452.052 73.2422Z" fill="#080808"/>
<path d="M362.923 255.848C362.854 254.644 363.593 253.542 364.733 253.15L367.076 252.343C367.158 253.759 366.219 255.031 364.843 255.372L362.923 255.848Z" fill="#080808"/>
<path d="M315.098 284.108C315.028 282.905 315.768 281.802 316.908 281.41L319.251 280.603C319.333 282.019 318.394 283.292 317.017 283.633L315.098 284.108Z" fill="#080808"/>
<path d="M287.924 303.673C287.855 302.47 288.595 301.367 289.734 300.975L292.078 300.168C292.159 301.584 291.221 302.857 289.844 303.198L287.924 303.673Z" fill="#080808"/>
<path d="M264.012 316.716C263.942 315.513 264.682 314.41 265.822 314.018L268.165 313.211C268.246 314.627 267.308 315.9 265.931 316.241L264.012 316.716Z" fill="#080808"/>
<path d="M422.741 224.598C422.017 223.634 422.022 222.307 422.753 221.349L424.256 219.378C425.109 220.512 425.033 222.091 424.076 223.138L422.741 224.598Z" fill="#080808"/>
<path d="M466.534 160.185C465.92 160.061 465.464 159.545 465.417 158.921L465.321 157.637C466.043 157.783 466.558 158.422 466.548 159.159L466.534 160.185Z" fill="#080808"/>
<path d="M482.473 129.112C481.948 128.771 481.714 128.123 481.901 127.525L482.284 126.297C482.901 126.698 483.145 127.482 482.864 128.163L482.473 129.112Z" fill="#080808"/>
<path d="M447.952 50.0544C449.019 49.4938 450.329 49.7113 451.157 50.5867L452.861 52.3867C451.606 53.0462 450.059 52.7181 449.179 51.6058L447.952 50.0544Z" fill="#080808"/>
<path d="M412.741 171.736C412.741 171.327 412.994 170.962 413.377 170.818L413.827 170.649C413.827 171.128 413.501 171.546 413.037 171.662L412.741 171.736Z" fill="#080808"/>
<path d="M412.741 171.736C412.741 171.327 412.994 170.962 413.377 170.818L413.827 170.649C413.827 171.128 413.501 171.546 413.037 171.662L412.741 171.736Z" fill="#080808"/>
<path d="M466.139 64.7341C466.476 64.5029 466.921 64.5049 467.255 64.7392L467.65 65.0152C467.255 65.2863 466.726 65.2538 466.367 64.9364L466.139 64.7341Z" fill="#080808"/>
<path d="M377.01 247.34C377.347 247.108 377.792 247.11 378.127 247.345L378.521 247.621C378.126 247.892 377.597 247.859 377.238 247.542L377.01 247.34Z" fill="#080808"/>
<path d="M329.185 275.6C329.522 275.369 329.967 275.371 330.301 275.605L330.696 275.881C330.301 276.152 329.772 276.12 329.413 275.802L329.185 275.6Z" fill="#080808"/>
<path d="M302.011 295.165C302.348 294.934 302.793 294.936 303.128 295.17L303.522 295.446C303.127 295.717 302.599 295.684 302.24 295.367L302.011 295.165Z" fill="#080808"/>
<path d="M278.099 308.208C278.435 307.977 278.88 307.979 279.215 308.213L279.61 308.489C279.215 308.76 278.686 308.728 278.327 308.41L278.099 308.208Z" fill="#080808"/>
<path d="M429.752 209.709C429.904 209.329 430.275 209.084 430.684 209.094L431.165 209.105C430.987 209.55 430.529 209.816 430.054 209.75L429.752 209.709Z" fill="#080808"/>
<path d="M464.117 151.989C464.046 151.79 464.105 151.566 464.267 151.429L464.458 151.267C464.542 151.502 464.456 151.763 464.249 151.901L464.117 151.989Z" fill="#080808"/>
<path d="M483.245 120.602C483.251 120.39 483.389 120.205 483.59 120.137L483.827 120.056C483.819 120.305 483.643 120.516 483.399 120.569L483.245 120.602Z" fill="#080808"/>
<path d="M453.973 68.7769C453.949 68.369 454.181 67.9893 454.555 67.8241L454.996 67.6295C455.023 68.1078 454.721 68.5434 454.264 68.6861L453.973 68.7769Z" fill="#080808"/>
<path d="M364.844 251.382C364.82 250.974 365.053 250.595 365.426 250.43L365.867 250.235C365.894 250.713 365.593 251.149 365.135 251.292L364.844 251.382Z" fill="#080808"/>
<path d="M317.019 279.643C316.995 279.235 317.227 278.855 317.601 278.69L318.042 278.495C318.069 278.974 317.767 279.409 317.31 279.552L317.019 279.643Z" fill="#080808"/>
<path d="M289.845 299.208C289.822 298.8 290.054 298.42 290.428 298.255L290.868 298.06C290.896 298.539 290.594 298.974 290.137 299.117L289.845 299.208Z" fill="#080808"/>
<path d="M265.933 312.251C265.909 311.843 266.141 311.463 266.515 311.298L266.955 311.103C266.983 311.582 266.681 312.017 266.224 312.16L265.933 312.251Z" fill="#080808"/>
<path d="M421.866 219.816C421.62 219.49 421.603 219.045 421.822 218.7L422.081 218.294C422.369 218.677 422.359 219.207 422.058 219.579L421.866 219.816Z" fill="#080808"/>
<path d="M464.544 158.632C464.336 158.59 464.176 158.423 464.143 158.214L464.103 157.967C464.347 158.016 464.526 158.225 464.537 158.474L464.544 158.632Z" fill="#080808"/>
<path d="M481.195 126.935C481.017 126.82 480.93 126.606 480.976 126.399L481.03 126.155C481.238 126.29 481.328 126.55 481.247 126.785L481.195 126.935Z" fill="#080808"/>
<path d="M452.812 49.9567C453.174 49.7666 453.616 49.8209 453.92 50.0929L454.28 50.4134C453.856 50.6362 453.334 50.5418 453.015 50.1844L452.812 49.9567Z" fill="#080808"/>
<path d="M416.001 173.91C416.001 173.501 416.255 173.135 416.637 172.992L417.088 172.823C417.088 173.302 416.762 173.72 416.297 173.836L416.001 173.91Z" fill="#080808"/>
<path d="M416.001 173.91C416.001 173.501 416.255 173.135 416.637 172.992L417.088 172.823C417.088 173.302 416.762 173.72 416.297 173.836L416.001 173.91Z" fill="#080808"/>
<path d="M466.192 68.6528C466.528 68.4215 466.973 68.4236 467.308 68.6578L467.703 68.9339C467.308 69.205 466.779 69.1725 466.42 68.855L466.192 68.6528Z" fill="#080808"/>
<path d="M377.063 251.258C377.4 251.027 377.845 251.029 378.179 251.263L378.574 251.539C378.179 251.81 377.65 251.778 377.291 251.46L377.063 251.258Z" fill="#080808"/>
<path d="M329.237 279.519C329.574 279.287 330.019 279.289 330.354 279.524L330.749 279.8C330.354 280.071 329.825 280.038 329.466 279.721L329.237 279.519Z" fill="#080808"/>
<path d="M302.064 299.083C302.401 298.852 302.846 298.854 303.181 299.089L303.575 299.365C303.18 299.636 302.651 299.603 302.293 299.286L302.064 299.083Z" fill="#080808"/>
<path d="M278.151 312.127C278.488 311.895 278.933 311.897 279.268 312.132L279.663 312.408C279.268 312.679 278.739 312.646 278.38 312.329L278.151 312.127Z" fill="#080808"/>
<path d="M431.968 212.941C432.12 212.562 432.491 212.317 432.9 212.326L433.381 212.338C433.203 212.782 432.744 213.048 432.27 212.983L431.968 212.941Z" fill="#080808"/>
<path d="M466.093 152.479C466.021 152.28 466.08 152.056 466.242 151.919L466.433 151.757C466.517 151.992 466.431 152.253 466.224 152.391L466.093 152.479Z" fill="#080808"/>
<path d="M484.9 121.785C484.907 121.573 485.045 121.388 485.246 121.32L485.483 121.239C485.475 121.488 485.298 121.699 485.055 121.752L484.9 121.785Z" fill="#080808"/>
<path d="M457.353 70.7604C457.33 70.3525 457.562 69.9728 457.935 69.8076L458.376 69.613C458.403 70.0913 458.102 70.5269 457.644 70.6696L457.353 70.7604Z" fill="#080808"/>
<path d="M368.224 253.366C368.201 252.958 368.433 252.578 368.807 252.413L369.247 252.218C369.274 252.697 368.973 253.132 368.515 253.275L368.224 253.366Z" fill="#080808"/>
<path d="M320.399 281.626C320.375 281.218 320.608 280.839 320.981 280.673L321.422 280.479C321.449 280.957 321.148 281.393 320.69 281.535L320.399 281.626Z" fill="#080808"/>
<path d="M293.225 301.191C293.202 300.783 293.434 300.403 293.808 300.238L294.248 300.044C294.276 300.522 293.974 300.958 293.517 301.1L293.225 301.191Z" fill="#080808"/>
<path d="M269.313 314.234C269.289 313.826 269.521 313.447 269.895 313.282L270.336 313.087C270.363 313.565 270.062 314.001 269.604 314.143L269.313 314.234Z" fill="#080808"/>
<path d="M425.778 219.594C425.533 219.267 425.516 218.823 425.735 218.478L425.994 218.072C426.282 218.455 426.272 218.985 425.971 219.357L425.778 219.594Z" fill="#080808"/>
<path d="M465.986 157.196C465.778 157.154 465.618 156.987 465.584 156.778L465.545 156.531C465.788 156.58 465.967 156.789 465.979 157.038L465.986 157.196Z" fill="#080808"/>
<path d="M483.065 126.131C482.887 126.016 482.799 125.802 482.845 125.595L482.899 125.35C483.108 125.486 483.197 125.746 483.116 125.981L483.065 126.131Z" fill="#080808"/>
<path d="M452.404 53.8546C452.766 53.6645 453.208 53.7188 453.513 53.9908L453.872 54.3113C453.448 54.5341 452.926 54.4397 452.607 54.0823L452.404 53.8546Z" fill="#080808"/>
<path d="M442.088 121.737C442.088 120.478 442.767 119.317 443.864 118.7L444.262 118.476V118.6C444.262 119.996 443.395 121.247 442.088 121.737Z" fill="#080808"/>
<path d="M447.523 92.3896C447.523 91.1306 448.202 89.9696 449.299 89.3524L449.696 89.1288V89.2527C449.696 90.6492 448.83 91.8992 447.523 92.3896Z" fill="#080808"/>
<path d="M454.103 48.0544C453.371 47.9078 452.729 47.4707 452.324 46.8427L450.155 43.4774L453.583 45.5841C458.923 48.8649 463.655 53.0445 467.569 57.9381L468.174 58.6945C467.102 58.3371 466.128 57.735 465.329 56.9357L461.218 52.8247C460.786 52.393 460.287 52.0337 459.741 51.7606L458.797 51.2886C458.532 51.1558 458.305 50.956 458.141 50.7089L457.597 49.894C457.43 49.6435 457.103 49.5566 456.834 49.6912C456.509 49.8537 456.115 49.6907 456 49.3461L455.857 48.9145C455.744 48.5769 455.459 48.3256 455.11 48.2558L454.103 48.0544Z" fill="#080808"/>
<path d="M445.349 116.302C445.349 114.189 446.437 112.225 448.229 111.105L448.609 110.868V111.411C448.609 113.55 447.323 115.479 445.349 116.302Z" fill="#080808"/>
<path d="M452.623 96.9691C452.223 95.3721 452.819 93.6908 454.136 92.703L454.613 93.4182C455.658 94.9857 455.757 97.0008 454.869 98.6627C454.721 98.9401 454.548 99.2033 454.351 99.4488L452.473 101.797L452.846 99.5563C452.958 98.8835 452.93 98.1948 452.765 97.5332L452.623 96.9691Z" fill="#080808"/>
<path d="M441.001 131.519C441.001 130.702 441.508 129.971 442.273 129.684L443.175 129.345C443.175 130.304 442.523 131.139 441.593 131.371L441.001 131.519Z" fill="#080808"/>
<path d="M447.136 73.9857C447.313 73.4523 447.99 73.2925 448.388 73.6901C448.53 73.8319 448.609 74.0243 448.609 74.2249V74.705C448.609 75.5294 449.137 76.2614 449.919 76.5221L450.24 76.629C451.214 76.9535 451.87 77.8647 451.87 78.891V80.1746C451.87 80.7045 451.971 81.2295 452.168 81.7215L452.536 82.6407C452.805 83.3134 453.338 83.8464 454.011 84.1154L455.267 84.618C455.513 84.7165 455.675 84.9548 455.675 85.2198C455.675 85.5778 455.384 85.8679 455.026 85.8679H452.414L450.746 85.6594C449.038 85.4459 447.491 84.519 446.49 83.1182C445.751 82.083 445.349 80.8363 445.349 79.5641V79.0745C445.349 78.1886 445.611 77.3226 446.102 76.5855L446.29 76.3041C446.387 76.159 446.464 76.0017 446.519 75.8363L447.136 73.9857Z" fill="#080808"/>
<path d="M374.41 227.556C374.017 226.377 374.894 225.159 376.137 225.159H376.54C377.1 225.159 377.638 225.381 378.034 225.777L378.194 225.938C378.711 226.454 378.87 227.229 378.598 227.908C378.239 228.806 377.242 229.268 376.325 228.962L375.562 228.708C375.018 228.526 374.591 228.1 374.41 227.556Z" fill="#080808"/>
<path d="M403.791 183.813C402.601 183.313 402.069 181.92 402.624 180.754C402.84 180.299 403.203 179.928 403.655 179.703L407.86 177.6C408.212 177.424 408.594 177.317 408.986 177.284L410.093 177.192C412.122 177.023 413.499 179.209 412.472 180.966C412.194 181.441 411.768 181.812 411.259 182.021L406.395 184.023C405.716 184.303 404.953 184.3 404.275 184.016L403.791 183.813Z" fill="#080808"/>
<path d="M403.611 193.677C404.743 194.162 406.052 193.62 406.51 192.476C406.674 192.065 406.96 191.713 407.329 191.467L407.537 191.328C408.092 190.958 408.507 190.414 408.718 189.782L409.293 188.056C409.763 186.646 410.737 185.458 412.028 184.721L412.585 184.402C413.39 183.942 414.326 183.764 415.244 183.895C416.721 184.106 417.973 185.09 418.527 186.475L418.719 186.953C419.053 187.955 418.8 189.059 418.064 189.815L399.697 208.692L388.452 219.426C387.982 219.875 387.436 220.238 386.84 220.499L380.399 223.317C379.761 223.596 379.046 223.128 379.046 222.432C379.046 222.016 379.312 221.646 379.706 221.515L380.081 221.39C380.462 221.263 380.777 220.99 380.956 220.631L382.174 218.195C382.621 217.302 383.229 216.499 383.968 215.828L400.079 201.181C400.528 200.773 400.784 200.194 400.784 199.586C400.784 198.829 401.182 198.128 401.831 197.738L403.297 196.859C403.43 196.778 403.539 196.661 403.609 196.522C403.836 196.066 403.598 195.515 403.11 195.368L399.679 194.339C399.009 194.138 398.479 193.623 398.258 192.96L397.968 192.091C397.728 191.372 398.151 190.6 398.887 190.416C399.381 190.293 399.901 190.469 400.219 190.866L401.363 192.296C401.697 192.713 402.128 193.041 402.619 193.252L403.611 193.677Z" fill="#080808"/>
<path d="M435.023 139.671C435.371 139.323 435.843 139.128 436.335 139.128H436.573C437.311 139.128 438.008 139.463 438.47 140.04L439.207 140.962C439.628 141.488 439.66 142.226 439.286 142.787L439.195 142.924C438.965 143.269 438.578 143.476 438.164 143.476H438.045C437.547 143.476 437.112 143.815 436.991 144.299L436.983 144.331C436.815 145.001 437.322 145.649 438.012 145.649H438.25C438.819 145.649 439.237 146.184 439.099 146.736C438.961 147.289 439.378 147.823 439.947 147.823H440.658C441.448 147.823 442.088 147.183 442.088 146.394V145.013C442.088 144.725 442.202 144.448 442.406 144.244C442.831 143.82 442.831 143.132 442.406 142.707C442.202 142.503 442.088 142.227 442.088 141.938V140.44C442.088 140.296 442.145 140.158 442.247 140.056L442.631 139.671C442.832 139.471 442.69 139.128 442.406 139.128C442.23 139.128 442.088 138.985 442.088 138.81V138.066C442.088 137.711 442.265 137.379 442.561 137.182L443.081 136.835C443.494 136.56 443.803 136.155 443.96 135.684L444.125 135.19C444.214 134.923 444.379 134.686 444.599 134.51L445.282 133.964C445.966 133.417 446.979 133.904 446.979 134.78V136.912C446.979 137.965 446.483 138.956 445.641 139.588L445.4 139.769C445.013 140.059 444.723 140.461 444.57 140.92L444.264 141.838C443.974 142.707 444.512 143.634 445.411 143.814C446.029 143.938 446.658 143.669 446.996 143.138L449.583 139.073C450.016 138.394 450.292 137.626 450.392 136.827L450.671 134.596C450.74 134.038 450.506 133.485 450.056 133.147C449.292 132.575 449.213 131.459 449.888 130.785L450.06 130.612C450.179 130.494 450.32 130.4 450.476 130.338L450.831 130.196C451.67 129.86 452.519 130.66 452.233 131.518C452.037 132.105 452.383 132.734 452.983 132.884L453.132 132.922C453.668 133.056 454.044 133.537 454.044 134.09V134.215C454.044 134.577 453.9 134.924 453.645 135.18L453.067 135.757C452.64 136.185 452.336 136.72 452.19 137.307L452.099 137.668C451.948 138.273 451.678 138.841 451.303 139.34L450.885 139.898C450.457 140.469 450.106 141.094 449.841 141.757L449.153 143.476L447.271 146.768C447.077 147.108 446.931 147.472 446.836 147.852L446.679 148.479C446.522 149.106 446.138 149.652 445.6 150.011C445.087 150.353 444.712 150.866 444.543 151.459L444.03 153.255C443.823 153.978 443.512 154.666 443.105 155.298L439.331 161.17C439.037 161.627 439.101 162.228 439.486 162.612C439.754 162.88 439.874 163.263 439.806 163.636L439.211 166.91C438.96 168.288 438.328 169.569 437.388 170.607L424.323 185.023C423.786 185.615 422.806 185.37 422.613 184.595C422.555 184.363 422.416 184.16 422.221 184.022L420.827 183.034C420.448 182.765 420.223 182.329 420.223 181.865C420.223 181.073 419.582 180.431 418.79 180.431H413.905C413.262 180.431 412.741 179.91 412.741 179.267C412.741 178.688 413.167 178.197 413.74 178.115L415.197 177.907C416.05 177.785 416.802 177.285 417.245 176.546L417.402 176.286C417.896 175.463 418.706 174.879 419.643 174.671L422.044 174.137C422.671 173.998 423.165 173.517 423.32 172.894L423.362 172.727C423.511 172.133 423.27 171.509 422.76 171.169C422.285 170.853 422.04 170.287 422.134 169.724L422.82 165.608C422.983 164.63 423.328 163.691 423.839 162.841L424.303 162.066C424.563 161.633 424.905 161.254 425.309 160.951L425.517 160.795C426.369 160.156 426.871 159.153 426.871 158.087C426.871 157.419 427.069 156.766 427.439 156.21L427.588 155.987C427.833 155.619 428.019 155.216 428.141 154.791L428.639 153.047C428.909 152.103 429.266 151.186 429.705 150.307L430.132 149.454L431.909 146.343C432.154 145.914 432.61 145.649 433.104 145.649C433.863 145.649 434.479 145.034 434.479 144.274V140.983C434.479 140.491 434.675 140.019 435.023 139.671Z" fill="#080808"/>
<path d="M328.503 277.169C328.503 276.569 328.016 276.082 327.416 276.082H326.505C325.808 276.082 325.242 275.516 325.242 274.819C325.242 274.275 325.59 273.792 326.106 273.62L330.562 272.135C331.331 271.878 331.968 271.326 332.33 270.601C332.666 269.931 333.235 269.407 333.931 269.128L334.835 268.767C335.319 268.573 335.836 268.473 336.358 268.473H339.787C340.158 268.473 340.459 268.173 340.459 267.802C340.459 267.547 340.603 267.315 340.831 267.201L341.651 266.791C342.268 266.482 342.7 265.897 342.814 265.217L343.03 263.917C343.126 263.34 343.36 262.794 343.711 262.326L344.345 261.481C344.636 261.093 345.092 260.865 345.577 260.865H346.917C347.446 260.865 347.79 260.308 347.553 259.835C347.534 259.797 347.511 259.761 347.486 259.727L346.695 258.672C346.175 257.979 345.894 257.135 345.894 256.269V255.317C345.894 254.701 346.174 254.119 346.654 253.735L347.864 252.767C348.248 252.46 348.819 252.585 349.039 253.026L349.049 253.046C349.118 253.182 349.229 253.293 349.365 253.362C349.796 253.577 349.89 254.152 349.549 254.493L348.811 255.23C348.367 255.674 348.257 256.352 348.538 256.914L348.551 256.94C348.591 257.02 348.638 257.097 348.692 257.169L349.745 258.573C350.033 258.956 350.553 259.079 350.981 258.865L351.616 258.547C351.984 258.363 352.416 258.63 352.416 259.041V259.179C352.416 259.684 353.071 259.882 353.351 259.462C353.446 259.32 353.605 259.234 353.776 259.234H354.956C356.197 259.234 357.15 260.333 356.974 261.561C356.849 262.441 356.168 263.138 355.291 263.284L355.145 263.308C354.197 263.466 353.502 264.286 353.502 265.247C353.502 265.905 353.831 266.518 354.378 266.883L354.639 267.057C355.812 267.839 356.129 269.424 355.347 270.597L354.589 271.734L348.934 278.933C348.72 279.204 348.555 279.51 348.446 279.838C347.758 281.902 349.427 283.989 351.592 283.773L351.993 283.733C352.273 283.705 352.549 283.64 352.813 283.541L355.982 282.353C356.499 282.159 357.046 282.06 357.598 282.06H360.536C361.454 282.06 362.198 281.316 362.198 280.398C362.198 279.754 362.57 279.168 363.153 278.894L369.288 276.006C370.708 275.338 371.987 274.406 373.057 273.259L377.807 268.17C378.624 267.294 379.257 266.263 379.666 265.137L380.749 262.158C381.045 261.346 381.711 260.724 382.542 260.487L382.836 260.403C384.059 260.053 385.341 260.729 385.743 261.936L385.952 262.562C386.052 262.863 386.006 263.195 385.83 263.459C385.44 264.045 385.743 264.849 386.426 265.02C386.879 265.133 387.198 265.54 387.198 266.008V267.083C387.198 267.943 386.737 268.737 385.99 269.163L384.031 270.283C383.673 270.487 383.538 270.936 383.722 271.305C383.854 271.568 384.123 271.734 384.417 271.734H384.795C386.116 271.734 386.691 273.404 385.65 274.217L373.28 283.881C372.086 284.814 370.614 285.321 369.098 285.321H367.75C365.218 285.321 362.768 286.219 360.834 287.854L357.424 290.74C356.984 291.112 356.518 291.452 356.029 291.758L340.525 301.448C339.998 301.778 340.005 302.548 340.538 302.868C341.148 303.234 341.047 304.146 340.373 304.371L335.241 306.082C334.66 306.275 334.087 305.769 334.207 305.169C334.328 304.564 333.745 304.057 333.162 304.261L325.009 307.114C324.108 307.429 323.124 307.408 322.237 307.053L321.322 306.687C321.046 306.577 320.74 306.568 320.457 306.662C319.798 306.882 319.442 307.594 319.662 308.253L319.717 308.419C319.776 308.595 319.891 308.746 320.045 308.848C320.617 309.23 320.506 310.101 319.857 310.327L311.553 313.215C310.514 313.577 309.524 312.563 309.91 311.532L310.136 310.93C310.345 310.372 309.933 309.777 309.338 309.777C309.084 309.777 308.844 309.889 308.682 310.084L305.573 313.815C304.221 315.438 302.438 316.646 300.43 317.301L278.97 324.299C278.668 324.397 278.342 324.39 278.045 324.278L276.975 323.877C276.065 323.536 276.109 322.234 277.04 321.955C277.933 321.687 278.022 320.458 277.177 320.064L273.732 318.456C272.476 317.869 271.95 316.362 272.571 315.122L273.598 313.067C273.964 312.336 274.514 311.712 275.194 311.259L277.417 309.777L279.756 307.906C279.997 307.713 280.308 307.628 280.614 307.672L281.415 307.786C282.223 307.902 282.713 306.921 282.136 306.344C281.908 306.116 281.829 305.78 281.931 305.474L282.179 304.728C282.263 304.478 282.427 304.263 282.647 304.117C283.297 303.683 284.182 303.987 284.429 304.728L284.64 305.358C284.87 306.05 285.517 306.516 286.246 306.516H287.924C288.724 306.516 289.373 305.867 289.373 305.067V304.984C289.373 304.58 289.183 304.2 288.86 303.957C288.097 303.385 288.203 302.21 289.056 301.784L290.045 301.289C290.318 301.153 290.619 301.082 290.924 301.082H293.556C294.248 301.082 294.808 300.521 294.808 299.83V299.724C294.808 299.546 294.755 299.372 294.656 299.224C294.256 298.624 294.686 297.821 295.407 297.821H297.638C297.922 297.821 298.203 297.878 298.464 297.99L301.065 299.105C301.539 299.308 302.096 299.154 302.405 298.742C302.901 298.08 302.53 297.115 301.715 296.979L300.986 296.858C300.616 296.796 300.412 296.395 300.58 296.06C300.699 295.82 300.973 295.7 301.23 295.774L302.987 296.276C303.936 296.547 304.59 297.414 304.59 298.401C304.59 299.353 305.199 300.198 306.102 300.498L307.176 300.856C307.608 301.001 308.08 300.967 308.488 300.763C309.337 300.339 309.681 299.306 309.256 298.457L309.166 298.277C309.017 297.978 308.792 297.723 308.514 297.538L307.947 297.16C306.553 296.231 305.794 294.594 305.979 292.928C306.131 291.559 306.902 290.33 308.069 289.6L309.118 288.945C310.019 288.382 311.159 288.334 312.109 288.809C312.523 289.015 312.983 289.125 313.445 289.125C314.662 289.125 315.756 288.384 316.208 287.255L316.547 286.408L318.514 282.965C318.649 282.729 318.85 282.539 319.093 282.417C319.535 282.196 320.061 282.229 320.472 282.503L321.023 282.871C321.297 283.053 321.604 283.18 321.926 283.245L323.074 283.474C323.788 283.617 324.523 283.617 325.236 283.474L326.347 283.252C326.69 283.184 327.004 283.015 327.251 282.768L327.702 282.318C328.144 281.875 328.144 281.158 327.702 280.716C327.517 280.531 327.274 280.415 327.014 280.389L323.022 279.99C322.404 279.928 321.898 279.47 321.776 278.86L321.731 278.633C321.579 277.876 322.159 277.169 322.931 277.169H323.612C323.912 277.169 324.155 277.412 324.155 277.712C324.155 278.013 324.399 278.256 324.699 278.256H327.416C328.016 278.256 328.503 277.769 328.503 277.169Z" fill="#080808"/>
<path d="M463.283 80.4333C463.283 79.833 463.77 79.3463 464.37 79.3463H466.527C467.779 79.3463 468.834 80.2783 468.99 81.5202L469.103 82.4298C469.194 83.1521 469.808 83.6941 470.535 83.6941C471.332 83.6941 471.979 84.3402 471.979 85.1373V85.2312C471.979 85.6389 471.817 86.0299 471.528 86.3182L471.166 86.6804C470.99 86.8562 470.752 86.9549 470.504 86.9549C469.881 86.9549 469.432 87.5508 469.603 88.1494L469.925 89.2783C470.169 90.1333 470.995 90.6873 471.879 90.5891L472.922 90.4732C474.291 90.3211 475.594 91.1015 476.105 92.3808L477.283 95.3237C477.368 95.5365 477.515 95.7184 477.706 95.8456C478.358 96.2801 479.244 95.9378 479.434 95.1777L479.555 94.6914C479.576 94.6064 479.587 94.5192 479.587 94.4316C479.587 93.4775 480.741 92.9997 481.415 93.6743L481.562 93.8209C481.693 93.9517 481.79 94.1119 481.846 94.2882L485.565 105.976L485.749 106.711C485.981 107.64 485.873 108.621 485.445 109.477L485.254 109.86C485.101 110.165 485.022 110.502 485.022 110.843V112.273C485.022 112.697 484.678 113.041 484.253 113.041C484.049 113.041 483.854 112.96 483.71 112.816L483.617 112.723C483.192 112.299 482.504 112.299 482.079 112.723C481.876 112.927 481.761 113.203 481.761 113.492V117.389C481.761 117.989 481.274 118.476 480.674 118.476C480.074 118.476 479.587 117.989 479.587 117.389V116.138C479.587 115.887 479.628 115.637 479.707 115.399L480.131 114.128L480.528 112.539C480.625 112.15 480.764 111.774 480.943 111.416L481.682 109.939C481.733 109.836 481.817 109.753 481.92 109.701C482.422 109.45 482.243 108.694 481.682 108.694H481.123C480.852 108.694 480.608 108.528 480.507 108.276L480.257 107.651C479.896 106.749 478.843 106.349 477.974 106.783L477.58 106.98C477.469 107.035 477.363 107.101 477.264 107.175L476.938 107.42C476.042 108.092 475.948 109.403 476.741 110.195L476.8 110.254C476.847 110.301 476.888 110.352 476.925 110.406L477.299 110.968C477.58 111.39 477.278 111.954 476.771 111.954H476.423C475.986 111.954 475.768 112.483 476.077 112.791C476.226 112.941 476.263 113.169 476.168 113.357L475.456 114.782C475.314 115.067 475.239 115.381 475.239 115.7V118.14C475.239 118.544 474.814 118.807 474.453 118.626C474.269 118.534 474.153 118.346 474.153 118.14V116.524C474.153 115.686 473.82 114.882 473.227 114.29L472.474 113.537C471.798 112.861 470.929 112.413 469.986 112.256L469.637 112.198C468.698 112.042 467.856 111.529 467.284 110.768L466.895 110.249C466.667 109.945 466.544 109.575 466.544 109.195C466.544 108.294 467.227 107.538 468.125 107.449L470.027 107.258C471.072 107.154 471.8 106.17 471.594 105.14C471.493 104.635 471.179 104.199 470.732 103.944L469.367 103.164C468.313 102.562 467.002 102.643 466.032 103.371C465.654 103.655 465.347 104.022 465.136 104.445L463.966 106.785C463.874 106.968 463.827 107.17 463.827 107.375C463.827 108.103 464.417 108.694 465.146 108.694H465.185C465.936 108.694 466.544 109.302 466.544 110.052V110.346C466.544 110.686 466.44 111.017 466.245 111.294L462.74 116.302L461.141 118.301C460.763 118.773 460.504 119.329 460.385 119.922L460.233 120.684C460.1 121.348 459.668 121.914 459.062 122.217L458.655 122.421C458.161 122.668 457.848 123.173 457.848 123.725V125.138C457.848 125.573 457.391 125.856 457.002 125.661C456.849 125.585 456.738 125.446 456.696 125.28L456.584 124.829C456.396 124.079 455.562 123.695 454.87 124.041C454.382 124.285 454.118 124.825 454.225 125.36L454.253 125.501C454.426 126.365 453.765 127.172 452.884 127.172H452.592C451.623 127.172 450.867 126.336 450.963 125.372L451.215 122.86C451.286 122.144 451.654 121.491 452.23 121.06C453.009 120.475 453.391 119.501 453.217 118.544L452.426 114.198C452.418 114.151 452.414 114.105 452.414 114.058C452.414 113.415 453.148 113.048 453.662 113.434L454.153 113.802C454.427 114.007 454.588 114.33 454.588 114.672V115.215C454.588 116.416 455.561 117.389 456.762 117.389H457.848C458.749 117.389 459.479 116.659 459.479 115.759V115.044C459.479 114.538 459.069 114.128 458.563 114.128H458.351C458.055 114.128 457.798 114.329 457.727 114.615C457.582 115.195 456.794 115.281 456.527 114.747L456.305 114.303C456.248 114.188 456.218 114.061 456.218 113.933V110.052C456.218 109.602 456.583 109.237 457.033 109.237C457.483 109.237 457.848 108.872 457.848 108.422C457.848 107.972 458.213 107.607 458.664 107.607H459.793C460.588 107.607 461.303 107.123 461.598 106.384L461.956 105.491C462.115 105.094 462.196 104.669 462.196 104.241V96.6474C462.196 96.0967 462.643 95.6504 463.193 95.6504C463.809 95.6504 464.278 95.0972 464.177 94.4895L464.002 93.4422C463.893 92.7886 463.451 92.2393 462.836 91.9932L461.539 91.4744C461.262 91.3637 461.036 91.1554 460.902 90.889C460.498 90.0803 461.086 89.1288 461.99 89.1288H462.273C463.062 89.1288 463.641 88.387 463.45 87.6213C463.346 87.2079 463.468 86.7705 463.769 86.4692L463.92 86.3182C464.208 86.0299 464.37 85.6389 464.37 85.2312V84.781C464.37 84.1807 464.857 83.6941 465.457 83.6941C466.057 83.6941 466.544 83.2074 466.544 82.6071C466.544 82.0068 466.057 81.5202 465.457 81.5202H464.37C463.77 81.5202 463.283 81.0336 463.283 80.4333Z" fill="#080808"/>
<path d="M472.222 80.9193C471.86 80.1966 472.386 79.3463 473.194 79.3463H474.632C475.004 79.3463 475.345 79.1359 475.511 78.8029C475.678 78.4698 476.018 78.2594 476.391 78.2594H477.346C478.344 78.2594 479.213 78.9383 479.455 79.906L479.867 81.5527C480.001 82.0883 479.596 82.6071 479.044 82.6071H478.629C477.884 82.6071 477.203 83.0279 476.87 83.6941L475.995 85.007C475.856 85.2151 475.665 85.3833 475.442 85.4951C474.981 85.7257 474.431 85.6915 474.002 85.4055L473.208 84.8761C473.115 84.8138 473.039 84.7282 472.989 84.6278C472.774 84.1988 473.086 83.6941 473.566 83.6941H473.866C474.324 83.6941 474.696 83.3223 474.696 82.8637V82.6071C474.696 82.0068 474.209 81.5202 473.609 81.5202H473.194C472.782 81.5202 472.406 81.2876 472.222 80.9193Z" fill="#080808"/>
<path d="M467.087 165.354C467.087 164.946 467.348 164.584 467.735 164.455L467.965 164.378C468.426 164.225 468.935 164.345 469.279 164.688L469.341 164.75C469.897 165.307 469.897 166.209 469.341 166.765L468.37 167.736C468.24 167.866 468.123 168.009 468.021 168.162L467.5 168.943C467.233 169.344 466.839 169.645 466.381 169.798C465.793 169.993 465.317 170.431 465.073 171.001L464.084 173.31C463.914 173.706 463.827 174.132 463.827 174.563V176.188C463.827 176.76 463.424 177.251 462.864 177.363L462.524 177.431C461.85 177.566 461.528 178.342 461.909 178.914C462.089 179.183 462.39 179.345 462.713 179.345H462.765C463.351 179.345 463.827 179.82 463.827 180.407V182.062C463.827 182.362 463.583 182.605 463.283 182.605C462.983 182.605 462.74 182.362 462.74 182.062V181.342C462.74 180.798 462.392 180.316 461.876 180.144L461.277 179.944C460.392 179.649 459.479 180.307 459.479 181.24C459.479 181.994 458.867 182.605 458.113 182.605H457.848C456.948 182.605 456.218 183.335 456.218 184.236V184.364C456.218 184.637 456.282 184.906 456.404 185.151L457.119 186.582C457.241 186.826 457.305 187.095 457.305 187.368V188.584C457.305 188.884 457.062 189.127 456.762 189.127C456.461 189.127 456.218 188.884 456.218 188.584V187.59C456.218 187.182 456.056 186.791 455.768 186.503L454.742 185.477C454.295 185.03 454.044 184.424 454.044 183.793C454.044 183.371 454.156 182.957 454.369 182.593L457.848 176.627L462.196 169.562L463.845 167.089C464.173 166.597 464.726 166.301 465.317 166.301H466.14C466.663 166.301 467.087 165.877 467.087 165.354Z" fill="#080808"/>
<path d="M472.343 124.089C472.462 123.971 472.56 123.834 472.635 123.685L472.787 123.381C472.958 123.039 473.307 122.824 473.688 122.824C474.245 122.824 474.696 123.275 474.696 123.831V124.454C474.696 124.754 474.453 124.998 474.153 124.998C473.852 124.998 473.609 125.241 473.609 125.541V126.607C473.609 126.972 473.733 127.327 473.962 127.612L475.291 129.274C475.61 129.672 475.783 130.166 475.783 130.676V131.562C475.783 131.869 475.956 132.149 476.231 132.287C476.596 132.469 477.04 132.351 477.266 132.011L477.641 131.45C477.821 131.179 478.175 131.085 478.466 131.231C478.785 131.39 478.915 131.778 478.755 132.097L478.195 133.216C478.049 133.509 477.75 133.693 477.423 133.693C477.086 133.693 476.78 133.89 476.639 134.196L476.204 135.145C475.934 135.734 475.904 136.405 476.121 137.016L476.539 138.196C476.738 138.755 477.266 139.128 477.858 139.128C478.542 139.128 479.126 139.622 479.239 140.297L479.442 141.518C479.518 141.974 479.167 142.389 478.705 142.389C478.292 142.389 477.957 142.723 477.957 143.136V144.333C477.957 145.128 477.473 145.843 476.735 146.138L476.484 146.239C475.757 146.529 475.331 147.287 475.46 148.058L475.686 149.417C475.737 149.721 475.503 149.997 475.194 149.997C474.919 149.997 474.696 149.774 474.696 149.499V148.367C474.696 148.067 474.453 147.823 474.153 147.823C473.852 147.823 473.609 148.067 473.609 148.367V149.454C473.609 149.754 473.366 149.997 473.066 149.997C472.765 149.997 472.522 149.754 472.522 149.454V147.71C472.522 147.095 472.802 146.513 473.282 146.128L474.607 145.069C474.932 144.808 475.415 144.914 475.602 145.287C475.713 145.509 475.944 145.649 476.192 145.649C476.563 145.649 476.87 145.349 476.87 144.978V144.563C476.87 143.962 476.383 143.476 475.783 143.476H473.511C472.239 143.476 471.076 144.194 470.507 145.332L470.46 145.425C470.386 145.575 470.322 145.729 470.269 145.887L469.549 148.046C469.377 148.562 468.895 148.91 468.351 148.91C467.653 148.91 467.087 148.345 467.087 147.647V146.321C467.087 145.576 467.508 144.896 468.174 144.563C468.841 144.229 469.261 143.549 469.261 142.804V142.114C469.261 141.939 469.209 141.767 469.112 141.621C468.715 141.026 467.812 141.119 467.547 141.784L467.375 142.213C467.22 142.6 466.768 142.772 466.395 142.586C466.153 142.465 466 142.218 466 141.948V140.029C466 139.436 466.138 138.852 466.404 138.322L467.615 135.899C467.986 135.156 468.448 134.461 468.989 133.83L469.6 133.117C470.784 131.735 471.435 129.975 471.435 128.156V126.102C471.435 125.395 471.716 124.717 472.216 124.217L472.343 124.089Z" fill="#080808"/>
<path d="M313.571 247.744C315.146 246.366 317.026 245.383 319.056 244.875L322.138 244.105C322.371 244.047 322.61 244.017 322.85 244.017H324.055C324.427 244.017 324.768 243.807 324.934 243.474C325.101 243.141 325.441 242.93 325.814 242.93H326.097C326.559 242.93 326.99 242.699 327.247 242.315L327.586 241.806C327.779 241.517 328.156 241.416 328.467 241.572C328.777 241.727 329.155 241.627 329.347 241.338L329.791 240.672C329.972 240.401 330.311 240.284 330.62 240.387C331.129 240.557 331.281 241.203 330.902 241.582L330.281 242.203C330.16 242.324 330.015 242.42 329.856 242.483L323.968 244.838C322.656 245.363 321.551 246.304 320.824 247.516C320.486 248.079 320.065 248.587 319.575 249.023L315.957 252.239C315.602 252.554 315.216 252.831 314.804 253.067L312.355 254.466C311.895 254.729 311.335 254.744 310.861 254.508C310.079 254.117 309.762 253.166 310.153 252.384L311.262 250.166C311.498 249.695 311.823 249.273 312.22 248.926L313.571 247.744Z" fill="#FAC05C"/>
<path d="M303.443 262.05C303.377 261.931 303.339 261.8 303.332 261.665L303.321 261.452C303.32 261.428 303.316 261.405 303.31 261.382L303.198 260.963C303.186 260.917 303.226 260.874 303.272 260.883C303.295 260.887 303.313 260.903 303.321 260.924L303.532 261.516C303.554 261.579 303.582 261.64 303.615 261.698L303.755 261.943C303.771 261.972 303.784 262.002 303.794 262.033L303.853 262.215C303.863 262.246 303.858 262.281 303.839 262.308C303.804 262.357 303.736 262.367 303.689 262.329L303.568 262.234C303.542 262.214 303.521 262.189 303.505 262.16L303.443 262.05Z" fill="#FAC05C"/>
<path d="M301.72 261.882C301.568 261.861 301.426 261.796 301.312 261.695L301.245 261.637C301.228 261.622 301.209 261.61 301.189 261.601L300.904 261.478C300.845 261.452 300.844 261.368 300.903 261.341C300.92 261.334 300.939 261.333 300.957 261.338L301.492 261.51C301.579 261.538 301.669 261.558 301.76 261.57L302.055 261.609C302.073 261.611 302.091 261.615 302.107 261.621L302.255 261.674C302.302 261.691 302.327 261.742 302.312 261.789C302.301 261.822 302.272 261.847 302.238 261.852L301.969 261.894C301.917 261.902 301.864 261.903 301.812 261.895L301.72 261.882Z" fill="#FAC05C"/>
<path d="M303.634 261.709C303.503 261.631 303.398 261.516 303.331 261.378L303.292 261.298C303.282 261.278 303.27 261.26 303.254 261.244L303.04 261.02C302.995 260.973 303.027 260.895 303.092 260.894C303.11 260.893 303.128 260.9 303.142 260.912L303.569 261.277C303.639 261.337 303.714 261.39 303.793 261.436L304.05 261.587C304.066 261.596 304.08 261.607 304.093 261.619L304.209 261.724C304.246 261.758 304.249 261.815 304.216 261.853C304.193 261.879 304.158 261.89 304.124 261.882L303.86 261.816C303.809 261.804 303.76 261.784 303.715 261.757L303.634 261.709Z" fill="#FAC05C"/>
<path d="M302.793 261.664C302.686 261.773 302.549 261.849 302.4 261.881L302.313 261.9C302.291 261.905 302.27 261.913 302.251 261.924L301.982 262.079C301.927 262.112 301.859 262.062 301.872 261.999C301.876 261.981 301.887 261.965 301.902 261.954L302.357 261.626C302.432 261.572 302.501 261.512 302.565 261.446L302.772 261.231C302.784 261.218 302.798 261.207 302.813 261.197L302.943 261.11C302.985 261.082 303.041 261.092 303.07 261.133C303.09 261.161 303.092 261.198 303.076 261.229L302.95 261.471C302.926 261.517 302.895 261.56 302.858 261.597L302.793 261.664Z" fill="#FAC05C"/>
<path d="M302.558 261.717C302.425 261.64 302.318 261.527 302.25 261.39L302.21 261.31C302.2 261.29 302.187 261.272 302.172 261.257L301.954 261.035C301.909 260.989 301.94 260.911 302.005 260.908C302.023 260.908 302.041 260.914 302.055 260.926L302.487 261.286C302.557 261.344 302.633 261.397 302.712 261.442L302.972 261.589C302.987 261.598 303.002 261.609 303.015 261.621L303.132 261.725C303.169 261.758 303.173 261.815 303.141 261.853C303.119 261.88 303.083 261.892 303.05 261.884L302.784 261.821C302.733 261.809 302.684 261.79 302.639 261.763L302.558 261.717Z" fill="#FAC05C"/>
<path d="M301.91 262.135C301.686 262.246 301.439 262.305 301.189 262.308L300.777 262.312C300.733 262.313 300.689 262.318 300.646 262.327L299.843 262.502C299.759 262.52 299.684 262.445 299.702 262.361C299.711 262.319 299.742 262.285 299.783 262.272L300.915 261.929C301.032 261.893 301.146 261.848 301.256 261.792L301.728 261.554C301.784 261.526 301.843 261.503 301.903 261.487L302.251 261.392C302.309 261.376 302.371 261.388 302.419 261.424C302.511 261.492 302.525 261.623 302.45 261.709L302.268 261.919C302.229 261.964 302.181 262.001 302.127 262.028L301.91 262.135Z" fill="#FAC05C"/>
<path d="M303.341 261.786C303.181 261.882 303 261.938 302.814 261.947L302.579 261.959C302.548 261.961 302.517 261.966 302.487 261.975L301.98 262.122C301.915 262.141 301.854 262.084 301.868 262.018C301.875 261.989 301.895 261.965 301.923 261.954L302.661 261.667C302.749 261.633 302.834 261.59 302.915 261.541L303.228 261.348C303.261 261.328 303.296 261.311 303.332 261.298L303.556 261.219C303.602 261.202 303.653 261.212 303.69 261.244C303.745 261.291 303.754 261.372 303.71 261.429L303.571 261.614C303.541 261.653 303.505 261.686 303.463 261.711L303.341 261.786Z" fill="#FAC05C"/>
<path d="M303.88 261.664C303.773 261.773 303.636 261.849 303.487 261.881L303.4 261.9C303.378 261.905 303.357 261.913 303.338 261.924L303.069 262.079C303.013 262.112 302.946 262.062 302.959 261.999C302.963 261.981 302.974 261.965 302.989 261.954L303.444 261.626C303.519 261.572 303.588 261.512 303.652 261.446L303.859 261.231C303.871 261.218 303.885 261.207 303.9 261.197L304.03 261.11C304.072 261.082 304.128 261.092 304.157 261.133C304.177 261.161 304.179 261.198 304.163 261.229L304.037 261.471C304.013 261.517 303.982 261.56 303.945 261.597L303.88 261.664Z" fill="#FAC05C"/>
<path d="M302.793 261.664C302.686 261.773 302.549 261.849 302.4 261.881L302.313 261.9C302.291 261.905 302.27 261.913 302.251 261.924L301.982 262.079C301.927 262.112 301.859 262.062 301.872 261.999C301.876 261.981 301.887 261.965 301.902 261.954L302.357 261.626C302.432 261.572 302.501 261.512 302.565 261.446L302.772 261.231C302.784 261.218 302.798 261.207 302.813 261.197L302.943 261.11C302.985 261.082 303.041 261.092 303.07 261.133C303.09 261.161 303.092 261.198 303.076 261.229L302.95 261.471C302.926 261.517 302.895 261.56 302.858 261.597L302.793 261.664Z" fill="#FAC05C"/>
<path d="M333.358 236.952C334.435 235.517 335.78 234.304 337.318 233.38L337.706 233.148L341.51 230.431L340.499 232.452C339.744 233.962 338.52 235.186 337.01 235.941C336.39 236.252 335.731 236.478 335.051 236.614L333.358 236.952Z" fill="#FAC05C"/>
<path d="M366.846 208.366C366.983 207.863 367.214 207.391 367.526 206.974L367.713 206.724C368.348 205.878 369.203 205.223 370.185 204.831L370.252 204.803C371.01 204.5 371.698 204.047 372.275 203.469L372.42 203.325C372.826 202.919 373.28 202.564 373.772 202.269L374.816 201.642C375.426 201.277 376.124 201.083 376.835 201.083L376.822 201.124C376.111 203.257 375.061 205.261 373.712 207.06L373.377 207.506C372.785 208.295 372.119 209.024 371.386 209.683L367.328 213.336C367.151 213.495 366.921 213.583 366.683 213.583C366.048 213.583 365.587 212.979 365.754 212.367L366.846 208.366Z" fill="#FAC05C"/>
<path d="M346.401 230.974C346.401 229.263 347.207 227.653 348.575 226.626V227.457C348.575 228.946 347.733 230.308 346.401 230.974Z" fill="#FAC05C"/>
<path d="M394.226 176.084C394.226 174.825 394.905 173.664 396.003 173.047L396.4 172.823V172.947C396.4 174.343 395.534 175.593 394.226 176.084Z" fill="#FAC05C"/>
<path d="M349.662 228.257C349.662 227.458 350.205 226.762 350.98 226.568L352.923 226.083C352.923 227.024 352.243 227.827 351.315 227.981L349.662 228.257Z" fill="#FAC05C"/>
<path d="M396.4 173.91C396.4 173.516 396.681 173.178 397.068 173.105L398.574 172.823C398.574 173.289 398.227 173.681 397.765 173.739L396.4 173.91Z" fill="#FAC05C"/>
<path d="M394.226 167.388C394.226 166.994 394.507 166.656 394.894 166.584L396.4 166.301C396.4 166.767 396.054 167.16 395.591 167.218L394.226 167.388Z" fill="#FAC05C"/>
<path d="M348.366 223.578C348.638 222.506 349.614 221.764 350.719 221.788L353.881 221.858C353.561 223.122 352.366 223.963 351.068 223.838L348.366 223.578Z" fill="#FAC05C"/>
<path d="M395.852 171.258C396.009 170.638 396.574 170.208 397.214 170.222L399.045 170.263C398.859 170.994 398.167 171.481 397.416 171.409L395.852 171.258Z" fill="#FAC05C"/>
<path d="M381.183 194.18C381.183 193.734 381.386 193.313 381.734 193.034L383.901 191.301C385.336 190.224 386.549 188.879 387.472 187.34L387.705 186.953C388.05 189.023 387.476 191.141 386.132 192.753L385.531 193.475L384.444 194.924C384.102 195.38 383.565 195.649 382.995 195.649H382.651C381.841 195.649 381.183 194.991 381.183 194.18Z" fill="#FAC05C"/>
</svg>
